Chronicles of Riddick 2004 BluRay 1080p DTS x264-LoNeWoLf


Encoded by Tequila-Bob a.k.a. bobnjeff a.k.a.LoNeWoLf

Source - NTSC BluRay Disc.

  http://www.imdb.com/title/tt0296572/

Genres:Action | Adventure | Sci-Fi | Thriller 

Rated PG-13 for intense sequences of violent action and some language.

Release Date:11 June 2004 (USA)

More at IMDbPro » The Chronicles of Riddick (2004) 
  119 min  -  Action | Adventure | Sci-Fi   -  11 June 2004 (USA) 
  6.4/10 X  Users: 6.4/10 (50,437 votes) 628 reviews | Critics: 177 reviews 
5 years after Pitch Black, the wanted criminal Riddick arrives on a planet called Helion Prime, and finds himself up against an invading empire called the Necromongers, an army that plans to convert or kill all humans in the universe. 


Director: David Twohy
Writers: Jim Wheat (characters), Ken Wheat (characters), and 1 more credit » 
Stars:Vin Diesel, Judi Dench and Colm Feore 

Cast
Cast overview, first billed only: 
  Vin Diesel  ...  Riddick  
  Colm Feore  ...  Lord Marshal  
  Thandie Newton  ...  Dame Vaako  
  Judi Dench  ...  Aereon  
  Karl Urban  ...  Vaako  
  Alexa Davalos  ...  Kyra  
  Linus Roache  ...  Purifier  
  Yorick van Wageningen  ...  The Guv  
  Nick Chinlund  ...  Toombs  
  Keith David  ...  Imam  
  Mark Gibbon  ...  Irgun  
  Roger R. Cross  ...  Toal  
  Terry Chen  ...  Merc Pilot  
  Christina Cox  ...  Eve Logan  
  Nigel Vonas  


Storyline
Riddick, now a hunted man, finds himself in the middle of two opposing forces in a major crusade. Colm Feore plays Lord Marshal, a warrior priest who is the leader of a sect that is waging the tenth and perhaps final crusade 500 years in the future. Judi Dench is Aereon, an ambassador from the Elemental race. She is an ethereal being who helps Riddick unearth his origins. Written by Jade Maxim

Format : Matroska 
File size : 7.97 GiB 
Duration : 1h 59mn 
Overall bit rate : 9 568 Kbps 
Encoded date : UTC 2010-11-16 20:44:07 
Writing application : mkvmerge v4.4.0 ('Die Wiederkehr') built on Oct 31 2010 21:52:48 
Writing library : libebml v1.0.0 + libmatroska v1.0.0 

[img]http://torrent-stats.info/687a/6d6e00ae.png[/img]

Video 
ID : 1 
Format : AVC 
Format/Info : Advanced Video Codec 
Format profile : High@L5.0 
Format settings, CABAC : Yes 
Format settings, ReFrames : 9 frames 
Muxing mode : Container profile=Unknown@5.0 
Codec ID : V_MPEG4/ISO/AVC 
Duration : 1h 59mn 
Bit rate : 8 034 Kbps 
Width : 1 920 pixels 
Height : 800 pixels 
Display aspect ratio : 2.40:1 
Frame rate : 23.976 fps 
Color space : YUV 
Chroma subsampling : 4:2:0 
Bit depth : 8 bits 
Scan type : Progressive 
Bits/(Pixel*Frame) : 0.218 
Stream size : 6.55 GiB (82%) 
Writing library : x264 core 98 r1649 c54c47d 
Encoding settings : cabac=1 / ref=9 / deblock=1:2:-1 / analyse=0x3:0x133 / me=hex / subme=9 / psy=1 / psy_rd=1.00:0.15 / mixed_ref=1 / me_range=16 / chroma_me=0 / trellis=1 / 8x8dct=1 / cqm=0 / deadzone=21,11 / fast_pskip=1 / chroma_qp_offset=-3 / threads=6 / sliced_threads=0 / nr=0 / decimate=1 / interlaced=0 / constrained_intra=0 / bframes=5 / b_pyramid=2 / b_adapt=1 / b_bias=0 / direct=3 / weightb=1 / weightp=2 / keyint=250 / keyint_min=25 / scenecut=40 / intra_refresh=0 / rc_lookahead=60 / rc=2pass / mbtree=1 / bitrate=8034 / ratetol=1.0 / qcomp=0.60 / qpmin=10 / qpmax=51 / qpstep=4 / cplxblur=20.0 / qblur=0.5 / ip_ratio=1.40 / aq=1:1.50 
Language : English 

Audio 
ID : 2 
Format : DTS 
Format/Info : Digital Theater Systems 
Codec ID : A_DTS 
Duration : 1h 59mn 
Bit rate mode : Constant 
Bit rate : 1 510 Kbps 
Channel(s) : 6 channels 
Channel positions : Front: L C R, Side: L R, LFE 
Sampling rate : 48.0 KHz 
Bit depth : 24 bits 
Video delay : 10ms 
Stream size : 1.26 GiB (16%) 
Title : 3/2+1 
Language : English 

Text #1 
Language : English 
Language : Spanish 
Language : French 
Language : Spanish 
Language : French 

Menu Chapters 27



Click on link below to view 1920x800 PNG files
 
http://s1015.photobucket.com/albums/af279/tequila-bob/Chronicles%20of%20Riddick%202004%20BluRay%201080p%20DTS%20x264-L/
